<svg height="200px" width="200px" version="1.1" id="Layer_1" xmlns="http://www.w3.org/2000/svg" xmlns:xlink="http://www.w3.org/1999/xlink" viewBox="0 0 511.995 511.995" xml:space="preserve" fill="#000000"><g id="SVGRepo_bgCarrier" stroke-width="0"></g><g id="SVGRepo_tracerCarrier" stroke-linecap="round" stroke-linejoin="round"></g><g id="SVGRepo_iconCarrier"> <circle style="fill:#00CC96;" cx="255.997" cy="255.997" r="255.997"></circle> <path style="fill:#07B587;" d="M511.154,277.985L364.657,131.488H147.343v23.042h8.667v202.729h-8.667v23.042l130.22,130.642 c124.089-10.358,223.022-109.08,233.592-233.169V277.985z"></path> <path style="fill:#E6E6E6;" d="M180.954,357.47h5.285c-1.269-15.22-0.634-40.165,12.895-60.67 c12.049-18.18,22.408-23.464,29.384-26.848c3.594-1.902,5.919-2.96,6.553-5.919c0.423-2.325,0.634-5.073,0.634-8.033 c0-2.748-0.211-5.707-0.634-8.033c-0.423-2.748-2.748-4.016-6.553-5.919c-6.976-3.594-17.335-8.667-29.384-26.848 c-13.529-20.506-14.164-45.45-12.895-60.67h-5.285h-12.049V357.26h12.049L180.954,357.47L180.954,357.47z M180.954,131.699h150.09 h33.612v23.042h-8.667V357.47h8.667v23.042h-33.612h-150.09h-33.612V357.47h8.667V154.741h-8.667v-23.042H180.954z M331.046,154.741 h-5.285c1.269,15.22,0.634,40.165-12.895,60.67c-12.049,18.18-22.408,23.464-29.384,26.848c-3.593,1.902-5.919,2.96-6.553,5.919 c-0.211,1.057-0.211,4.228-0.211,7.399c0,3.805,0,7.611,0.211,8.667l0,0c0.423,2.748,2.748,4.016,6.553,5.919 c6.976,3.594,17.335,8.667,29.384,26.848c13.529,20.506,14.164,45.45,12.895,60.67h5.285h12.049V154.953h-12.049V154.741z"></path> <path style="fill:#FBBE00;" d="M194.907,357.47h122.398c1.269-13.74,0.846-36.994-11.627-55.808 c-10.782-16.277-19.871-20.928-26.213-24.099c-5.919-2.96-9.935-5.073-10.993-12.261l0,0c-0.211-1.48-0.423-5.919-0.423-9.935 c0-3.594,0.211-6.976,0.423-8.878c1.057-7.187,5.073-9.09,10.993-12.261c6.131-3.171,15.22-7.822,26.213-24.099 c12.473-18.815,12.684-42.068,11.627-55.808H194.907c-1.269,13.74-0.846,36.994,11.627,55.808 c10.782,16.277,19.871,20.928,26.213,24.099c6.131,2.96,9.935,5.073,10.993,12.261c0.423,2.96,0.634,6.131,0.634,9.302 s-0.211,6.553-0.634,9.302c-1.057,7.187-5.073,9.09-10.993,12.261c-6.131,3.171-15.22,7.822-26.213,24.099 c-12.473,18.815-12.684,42.068-11.627,55.808V357.47z"></path> <path style="fill:#E7A20B;" d="M255.999,357.47h61.305c1.269-13.74,0.846-36.994-11.627-55.808 c-10.782-16.277-19.871-20.928-26.213-24.099c-5.919-2.96-9.935-5.073-10.993-12.261l0,0c-0.211-1.48-0.423-5.919-0.423-9.935 c0-3.594,0.211-6.976,0.423-8.878c1.057-7.187,5.073-9.09,10.993-12.261c6.131-3.171,15.22-7.822,26.213-24.099 c12.473-18.815,12.684-42.068,11.627-55.808H256V357.05L255.999,357.47L255.999,357.47z"></path> <path style="fill:#F7F7F8;" d="M253.886,234.649c-2.325-2.748-6.553-3.594-22.197-12.895 c-21.562-12.684-19.448-28.961-19.448-28.961h42.279H296.8c0,0,2.114,16.277-19.448,28.961 c-14.164,8.244-17.546,10.358-19.026,12.895v68.281c5.496,0.423,15.431,2.537,24.522,9.09c10.993,7.822,25.368,39.531,25.368,39.531 h-50.523h-3.382h-50.525c0,0,9.935-28.115,25.368-39.531c7.187-5.285,15.644-8.456,24.522-8.878v-68.492L253.886,234.649 L253.886,234.649z"></path> <path style="fill:#D9DADA;" d="M255.999,192.793h40.588c0,0,2.114,16.277-19.448,28.961c-14.164,8.244-17.546,10.358-19.026,12.895 v68.281c5.496,0.423,15.432,2.537,24.522,9.09c10.993,7.822,25.368,39.531,25.368,39.531H257.48h-1.691V192.793L255.999,192.793 L255.999,192.793z"></path> </g></svg>